<?xml version="1.0" encoding="utf-8"?>
<!-- Generator: Adobe Illustrator 21.0.2, SVG Export Plug-In . SVG Version: 6.00 Build 0)  -->
<svg version="1.1" id="Layer_1" xmlns="http://www.w3.org/2000/svg" xmlns:xlink="http://www.w3.org/1999/xlink" x="0px" y="0px"
	 viewBox="0 0 500 500" style="enable-background:new 0 0 500 500;" xml:space="preserve">
<g>
	<polygon points="92.9,162.6 72.9,162.6 72.9,249.1 72.9,249.1 72.9,335.5 92.9,335.5 92.9,249 92.9,249 	"/>
	<path d="M143.2,230.6c-0.9,1.9-2.2,3.5-3.9,4.5c-1.7,1.1-3.8,1.6-6.4,1.6c-4.1,0-7.3-1.2-9.6-3.6c-2.3-2.4-3.7-5.7-4.4-9.9h44.5
		c0.1-6.3-0.8-12-2.6-17.2c-1.8-5.2-4.6-9.5-8.3-12.9c-2.7-2.4-5.7-4.3-9.3-5.7c-3.5-1.4-7.5-2.1-11.9-2.1c-4.8,0-9.1,0.8-12.9,2.5
		c-3.9,1.7-7.2,4-10,6.9c-2.8,2.9-5,6.4-6.5,10.4c-1.5,4-2.3,8.3-2.3,12.9c0,4.7,0.8,9,2.3,13.1c1.5,4,3.7,7.5,6.5,10.5
		c2.8,2.9,6.3,5.2,10.4,6.9c4.1,1.7,8.7,2.5,13.8,2.5c4,0,7.5-0.5,10.7-1.5c3.2-1,6.1-2.4,8.6-4.2c2.7-1.9,5-4.1,6.8-6.6
		c1.8-2.5,3-5.2,3.6-8H143.2z M123.1,202.7c2-2.2,4.9-3.3,8.7-3.3c3.2,0,5.9,1.1,8,3.3c2.1,2.2,3.3,5.1,3.7,8.8h-24.4
		C119.8,207.8,121.1,204.8,123.1,202.7z"/>
	<path d="M224.5,191.9c-1.9-2.1-4.1-3.7-6.8-4.8s-5.7-1.8-9.1-1.8c-4.4,0-8,0.9-11.1,2.6c-3,1.7-5.7,4.3-8,7.7h-0.4v-8.5h-19v61.9
		h19.7v-34.2c0-3.9,1-7,3-9.4c2-2.4,4.6-3.6,7.9-3.6c3.2,0,5.6,1,7.3,3c1.6,2,2.4,4.7,2.4,8v36.3h19.7v-40.3c0-3.5-0.5-6.6-1.5-9.5
		C227.8,196.5,226.4,194,224.5,191.9z"/>
	<path d="M293.5,191.9c-1.9-2.1-4.1-3.7-6.8-4.8c-2.7-1.2-5.7-1.8-9.1-1.8c-4.4,0-8,0.9-11.1,2.6c-3,1.7-5.7,4.3-8,7.7h-0.4v-8.5
		h-19v61.9h19.7v-34.2c0-3.9,1-7,3-9.4c2-2.4,4.6-3.6,7.9-3.6c3.2,0,5.6,1,7.3,3c1.6,2,2.4,4.7,2.4,8v36.3h19.7v-40.3
		c0-3.5-0.5-6.6-1.5-9.5C296.7,196.5,295.3,194,293.5,191.9z"/>
	<path d="M344.8,242.2h0.2c0.2,1.6,0.5,3,0.8,4.2c0.3,1.2,0.7,2.1,1.2,2.7h19.1v-0.8c-0.9-0.6-1.5-1.6-1.8-3
		c-0.3-1.4-0.4-3.4-0.4-5.9v-31.2c0-3.9-0.6-7.3-1.9-10.3c-1.3-3-3.3-5.4-5.9-7.4c-2.3-1.7-5-3-8.2-3.8c-3.2-0.8-7.2-1.3-11.9-1.3
		c-4.7,0-8.8,0.6-12.2,1.7c-3.5,1.1-6.4,2.7-8.6,4.6s-4.1,4.2-5.3,6.8c-1.2,2.6-1.9,5.3-1.9,8.2h18.1c0.3-2.6,1.3-4.6,2.9-5.9
		c1.6-1.4,4-2.1,7.1-2.1c3,0,5.1,0.6,6.5,1.8c1.3,1.2,2,2.8,2,4.8c0,2.1-1.2,3.6-3.5,4.5c-2.3,0.9-6.4,1.7-12.2,2.4
		c-3.2,0.4-6.3,1-9.1,1.8c-2.9,0.8-5.4,2-7.6,3.5c-2.2,1.5-3.9,3.4-5.1,5.7c-1.3,2.3-1.9,5.1-1.9,8.5c0,3.1,0.5,5.8,1.6,8.1
		c1,2.3,2.5,4.3,4.4,5.9c1.9,1.6,4.1,2.8,6.7,3.6c2.6,0.8,5.5,1.2,8.5,1.2c4.7,0,8.4-0.8,11.3-2.3
		C340.5,246.8,342.9,244.8,344.8,242.2z M326.6,236.5c-1.6-1-2.4-2.8-2.4-5.3c0-2.3,0.8-4.1,2.5-5.3c1.7-1.2,4.4-2.2,8.2-3.1
		c2-0.5,3.9-1,5.6-1.5c1.7-0.5,3.2-1.1,4.5-1.8v7.4c0,3.4-1.1,6.1-3.4,8.1c-2.3,2-5.3,3-9,3C330.2,238.1,328.2,237.6,326.6,236.5z"
		/>
	<path d="M398.7,206.7c3.6-2.9,8.4-4,14.5-3.1h0.5v-16.9c-0.7-0.3-2-0.5-3.9-0.5c-3.8,0-7,0.8-9.7,2.5c-2.7,1.7-5.1,4.4-7.3,8.1
		h-0.4v-9.7h-18.9v61.9h19.7v-27.8C393.3,214.5,395.1,209.6,398.7,206.7z"/>
	<path d="M425.9,232.8c0,3.3,0.5,6.1,1.5,8.3c1,2.2,2.3,4,4.1,5.3s3.8,2.2,6.2,2.7s5,0.8,7.9,0.8c2.7,0,4.9-0.1,6.7-0.3
		c1.8-0.2,3.2-0.4,4.1-0.7v-14.4c-0.4,0-1,0-1.8,0.1c-0.8,0-1.7,0.1-2.5,0.1c-2.1,0-3.8-0.4-5-1.2c-1.2-0.8-1.9-2.4-1.9-4.8v-29
		h11.3v-12.3h-11.3v-19.6h-19.2v19.6h-8.2v12.3h8.2V232.8z"/>
	<path d="M57.2,281.2c-2.9-2.9-6.3-5.2-10.4-6.9c-4.1-1.7-8.6-2.5-13.6-2.5c-5,0-9.5,0.8-13.6,2.5c-4.1,1.7-7.6,4-10.5,6.9
		c-2.9,2.9-5.1,6.4-6.7,10.4c-1.6,4-2.4,8.3-2.4,13c0,4.7,0.8,9,2.4,13c1.6,4,3.8,7.5,6.7,10.4c2.9,2.9,6.4,5.2,10.5,6.9
		c4.1,1.7,8.6,2.5,13.6,2.5c5,0,9.5-0.8,13.6-2.5c4.1-1.7,7.5-4,10.4-6.9c2.9-2.9,5.1-6.4,6.7-10.4c1.6-4,2.4-8.3,2.4-13
		c0-4.7-0.8-9-2.4-13C62.2,287.6,60,284.1,57.2,281.2z M42.9,318.2c-2.2,3.4-5.5,5.1-9.9,5.1c-4.4,0-7.6-1.7-9.8-5.1
		c-2.2-3.4-3.3-8-3.3-13.6c0-5.6,1.1-10.2,3.3-13.7c2.2-3.5,5.4-5.2,9.8-5.2c4.4,0,7.6,1.7,9.9,5.2c2.2,3.5,3.3,8,3.3,13.7
		C46.2,310.3,45.1,314.8,42.9,318.2z"/>
	<path d="M149.2,301.3c-2.3-1.5-4.8-2.5-7.6-3.2c-2.8-0.7-5.5-1.3-8.3-1.8c-1.9-0.3-3.8-0.6-5.6-1c-1.8-0.3-3.4-0.7-4.8-1.1
		c-1.4-0.4-2.5-1-3.3-1.6c-0.8-0.6-1.2-1.5-1.2-2.7c0-1.9,0.8-3.4,2.5-4.3c1.7-0.9,3.7-1.4,6.1-1.4c2.7,0,5,0.5,6.7,1.5
		c1.7,1,2.8,2.9,3.2,5.7h18.1c-0.5-6.1-3.1-11-7.7-14.5c-4.7-3.5-11.4-5.3-20.2-5.3c-3.6,0-7.1,0.4-10.3,1.3
		c-3.3,0.8-6.1,2.1-8.5,3.7c-2.4,1.7-4.3,3.7-5.7,6.2c-1.4,2.5-2.1,5.4-2.1,8.6c0,3.6,0.6,6.6,1.9,8.9c1.3,2.3,3,4.1,5.1,5.5
		c2.1,1.4,4.5,2.4,7.2,3.1c2.7,0.7,5.3,1.3,8,1.8c2,0.4,4,0.7,5.9,1c1.9,0.3,3.6,0.7,5,1.2c1.5,0.5,2.6,1.2,3.5,2.1
		c0.9,0.8,1.3,2,1.3,3.3c0,2-0.9,3.6-2.6,4.6c-1.7,1-4.1,1.6-7.1,1.6c-3.3,0-5.9-0.8-7.9-2.3c-1.9-1.5-3.1-3.8-3.5-6.9H98.7
		c0.3,6.9,3.1,12.2,8.5,16.1c5.3,3.9,12.5,5.9,21.7,5.9c4,0,7.8-0.4,11.3-1.3c3.5-0.9,6.5-2.2,9-3.9c2.5-1.7,4.5-3.8,5.9-6.4
		c1.4-2.6,2.1-5.6,2.1-9c0-4-0.7-7.2-2.2-9.6C153.4,304.7,151.5,302.8,149.2,301.3z"/>
	<path d="M222.5,292.3c-1.8-5.2-4.6-9.5-8.3-12.9c-2.7-2.4-5.7-4.3-9.3-5.7c-3.5-1.4-7.5-2.1-11.9-2.1c-4.8,0-9.1,0.8-12.9,2.5
		c-3.9,1.7-7.2,4-10,6.9c-2.8,2.9-5,6.4-6.5,10.4c-1.5,4-2.3,8.3-2.3,12.9c0,4.7,0.8,9,2.3,13.1c1.5,4,3.7,7.5,6.5,10.5
		c2.8,2.9,6.3,5.2,10.4,6.9c4.1,1.7,8.7,2.5,13.8,2.5c4,0,7.5-0.5,10.7-1.5c3.2-1,6.1-2.4,8.6-4.2c2.7-1.9,5-4.1,6.8-6.6
		c1.8-2.5,3-5.2,3.6-8h-19.2c-0.9,1.9-2.2,3.4-3.9,4.5c-1.7,1.1-3.8,1.6-6.4,1.6c-4.1,0-7.3-1.2-9.6-3.6c-2.3-2.4-3.7-5.7-4.4-9.9
		h44.5C225.2,303.3,224.4,297.5,222.5,292.3z M180.7,297.8c0.6-3.7,2-6.7,4-8.8c2-2.2,4.9-3.3,8.7-3.3c3.2,0,5.9,1.1,8,3.3
		c2.1,2.2,3.3,5.1,3.7,8.8H180.7z"/>
	<path d="M286.1,278.3c-1.9-2.1-4.1-3.7-6.8-4.8c-2.7-1.2-5.7-1.8-9.1-1.8c-4.4,0-8,0.9-11.1,2.6c-3,1.7-5.7,4.3-8,7.7h-0.4v-8.5
		h-19v61.9h19.7v-34.2c0-3.9,1-7,3-9.4c2-2.4,4.6-3.6,7.9-3.6c3.2,0,5.6,1,7.3,3c1.6,2,2.4,4.7,2.4,8v36.3h19.7v-40.3
		c0-3.5-0.5-6.6-1.5-9.5C289.4,282.8,288,280.4,286.1,278.3z"/>
	<rect x="299.9" y="315.1" width="20.7" height="20.3"/>
	<path d="M383.5,278.3c-1.9-2.1-4.1-3.7-6.8-4.8c-2.7-1.2-5.7-1.8-9.1-1.8c-4.4,0-8,0.9-11.1,2.6c-3,1.7-5.7,4.3-8,7.7h-0.4v-8.5
		h-19v61.9h19.7v-34.2c0-3.9,1-7,3-9.4c2-2.4,4.6-3.6,7.9-3.6c3.2,0,5.6,1,7.3,3c1.6,2,2.4,4.7,2.4,8v36.3h19.7v-40.3
		c0-3.5-0.5-6.6-1.5-9.5S385.4,280.4,383.5,278.3z"/>
	<path d="M456.6,292.3c-1.8-5.2-4.6-9.5-8.3-12.9c-2.7-2.4-5.7-4.3-9.3-5.7c-3.5-1.4-7.5-2.1-11.9-2.1c-4.8,0-9.1,0.8-12.9,2.5
		c-3.9,1.7-7.2,4-10,6.9c-2.8,2.9-5,6.4-6.5,10.4c-1.5,4-2.3,8.3-2.3,12.9c0,4.7,0.8,9,2.3,13.1c1.5,4,3.7,7.5,6.5,10.5
		c2.8,2.9,6.3,5.2,10.4,6.9c4.1,1.7,8.7,2.5,13.8,2.5c4,0,7.5-0.5,10.7-1.5c3.2-1,6.1-2.4,8.7-4.2c2.7-1.9,5-4.1,6.8-6.6
		c1.8-2.5,3-5.2,3.6-8h-19.2c-0.9,1.9-2.2,3.4-3.9,4.5c-1.7,1.1-3.8,1.6-6.4,1.6c-4.1,0-7.3-1.2-9.6-3.6c-2.3-2.4-3.7-5.7-4.4-9.9
		h44.5C459.3,303.3,458.4,297.5,456.6,292.3z M414.8,297.8c0.6-3.7,2-6.7,4-8.8c2-2.2,4.9-3.3,8.7-3.3c3.2,0,5.9,1.1,8,3.3
		c2.1,2.2,3.3,5.1,3.8,8.8H414.8z"/>
	<path d="M500,285.9v-12.3h-11.3v-19.6h-19.2v19.6h-8.2v12.3h8.2v33.3c0,3.3,0.5,6.1,1.5,8.3c1,2.2,2.3,4,4.1,5.3
		c1.8,1.3,3.9,2.2,6.2,2.7c2.4,0.5,5,0.8,7.9,0.8c2.7,0,4.9-0.1,6.7-0.3c1.8-0.2,3.2-0.4,4.1-0.7v-14.4c-0.4,0-1,0-1.8,0.1
		c-0.8,0-1.7,0.1-2.5,0.1c-2.1,0-3.8-0.4-5-1.2c-1.3-0.8-1.9-2.4-1.9-4.8v-29H500z"/>
</g>
</svg>
